<svg preserveAspectRatio="none" width="100%" height="100%" overflow="visible" style="display: block;" viewBox="0 0 26 26" fill="none" xmlns="http://www.w3.org/2000/svg">
<g id="logo">
<g id="Bg">
</g>
<path id="Shape" d="M10.7109 8.35547C13.6611 8.35591 11.0283 16.2607 15.1035 16.2607C17.3821 16.2606 18.1512 12.7666 19.8682 12.7666C22.0757 12.7668 25.9999 16.0339 26 19.7598C26 23.606 20.1427 26 13 26C5.8573 26 0 23.606 0 19.7598C0.0001603 14.6767 6.81748 8.35547 10.7109 8.35547ZM19.1934 0C20.7422 5.26682e-05 21.998 1.25584 21.998 2.80469C21.9979 4.35345 20.7421 5.60932 19.1934 5.60938C17.6445 5.60938 16.3888 4.35348 16.3887 2.80469C16.3887 1.25581 17.6445 0 19.1934 0Z" fill="var(--fill-0, #1C1C1F)"/>
</g>
</svg>
