<svg width="24" height="24" viewBox="0 0 24 24" fill="none" xmlns="http://www.w3.org/2000/svg">
<path d="M8.74883 2.01018L9.80149 2H14.1513L15.6081 2.01795L16.4497 2.04615L16.9253 2.06691C17.7749 2.10555 18.3466 2.21818 18.7611 2.34004L18.9918 2.41375L19.1906 2.48656C19.76 2.70709 20.166 2.97219 20.5934 3.39898C21.0208 3.82576 21.2841 4.23234 21.5058 4.80178L21.579 5.00016L21.6528 5.23075C21.7748 5.64509 21.8868 6.21748 21.9254 7.06706L21.9675 8.10928L21.9885 9.2525L21.9955 10.8378L21.9914 14.3622L21.9743 15.634L21.9594 16.1243L21.9254 16.9259C21.8868 17.7755 21.7742 18.3479 21.6523 18.7622L21.5786 18.9928L21.5058 19.1912C21.2841 19.7606 21.0202 20.1666 20.5934 20.5934C20.1666 21.0202 19.76 21.2841 19.1906 21.5058L18.9922 21.579L18.7616 21.6528C18.3473 21.7748 17.7749 21.8868 16.9253 21.9254L15.8836 21.9675L14.7402 21.9885L13.1546 21.9955L9.78994 21.9924L8.39884 21.9755L7.75151 21.9552L7.06765 21.9254C6.38799 21.8945 5.88573 21.8167 5.49986 21.7243L5.23134 21.6528L5.00075 21.579L4.80237 21.5058C4.23292 21.2841 3.82694 21.0202 3.39957 20.5934C2.97219 20.1666 2.70768 19.7606 2.48715 19.1912L2.41397 18.9928L2.34011 18.7622C2.23036 18.3893 2.12864 17.8884 2.08123 17.1726L2.04011 16.3043L2.01671 15.5736L2 14.1921V9.84164L2.01794 8.38484L2.04615 7.54327L2.06691 7.06766C2.10554 6.21808 2.21818 5.6463 2.34004 5.23187L2.41375 5.00113L2.48656 4.80237C2.70827 4.23293 2.97278 3.82695 3.39897 3.39898C3.82576 2.97219 4.23174 2.70709 4.80177 2.48656L5.00015 2.41338L5.23075 2.33952C5.64509 2.21758 6.21748 2.10555 7.06706 2.06691L8.1198 2.02457L8.74883 2.01018Z" fill="#470137"/>
<path d="M18.9501 6.37519C18.9723 6.37194 18.9947 6.37958 19.0105 6.39582C19.0264 6.41206 19.0338 6.43499 19.0307 6.45773V14.5903C19.0307 14.6944 19.0337 14.8045 19.0396 14.9207L19.0843 15.5948C19.0877 15.6533 19.0557 15.708 19.0038 15.7324C18.5677 15.919 18.1135 16.0574 17.6488 16.1453C17.2239 16.2257 16.7928 16.2671 16.3607 16.2691C15.7432 16.2788 15.1313 16.1471 14.5696 15.8838C14.0463 15.6354 13.6089 15.23 13.3152 14.721C13.011 14.2029 12.8589 13.5538 12.859 12.7739C12.854 12.1423 13.0113 11.5206 13.3152 10.9712C13.6282 10.4117 14.0885 9.9539 14.6434 9.65022C15.2247 9.31996 15.9269 9.15484 16.7498 9.15484L17.0002 9.16716L17.1792 9.18237V6.47151C17.1792 6.40743 17.206 6.37519 17.2597 6.37519H18.9501ZM6.9558 7.11825C6.99705 7.11594 7.03829 7.12297 7.07657 7.13891C7.10865 7.15755 7.13617 7.18343 7.15705 7.21459C7.31806 7.5816 7.49695 7.94854 7.69372 8.31544C7.89037 8.68246 8.08939 9.04483 8.29076 9.40253C8.49201 9.76031 8.67762 10.1227 8.84756 10.4896H8.86099C9.03978 10.1136 9.22091 9.74662 9.40437 9.38878L9.68266 8.85039L9.96784 8.30855C10.1601 7.94626 10.3457 7.58619 10.5246 7.22834C10.5349 7.19438 10.5534 7.16363 10.5783 7.13891C10.6114 7.12166 10.6487 7.11449 10.6857 7.11825H12.4432C12.4781 7.10941 12.5143 7.12656 12.5304 7.15954C12.5465 7.19252 12.5382 7.23253 12.5103 7.25587L10.0148 11.4804L12.6847 15.9664C12.7018 15.9978 12.7067 16.0347 12.6982 16.0696C12.6891 16.1018 12.6579 16.0815 12.6042 16.0905H10.6991C10.5649 16.0905 10.471 16.0857 10.4173 15.9939L9.88065 14.9275C9.76129 14.6921 9.63703 14.4536 9.50787 14.212L9.31046 13.8472C9.1092 13.4804 8.91019 13.1089 8.71341 12.7326H8.69998C8.52094 13.0996 8.33534 13.4666 8.14318 13.8335L7.57299 14.9275C7.38516 15.29 7.19286 15.65 6.99608 16.0077C6.96741 16.0737 6.92154 16.0924 6.85861 16.0972L4.97016 16.0987L4.92833 16.1014C4.91826 16.1004 4.91208 16.0948 4.90978 16.0765C4.90473 16.0429 4.9119 16.0086 4.92992 15.9801L7.51932 11.618L4.99698 7.24209C4.97016 7.20556 4.96569 7.17575 4.98355 7.15266C5.00364 7.12886 5.03346 7.11611 5.06408 7.11825H6.9558ZM16.6827 10.7511C16.3572 10.7478 16.0354 10.8232 15.7436 10.9712C15.4593 11.1162 15.2166 11.3343 15.0392 11.6042C14.8558 11.8795 14.7641 12.2418 14.7642 12.6913C14.7576 12.9913 14.8054 13.2899 14.905 13.572C14.9861 13.7993 15.1143 14.0059 15.2807 14.1775C15.44 14.3354 15.6329 14.4531 15.8442 14.5215C16.0673 14.5956 16.3006 14.6328 16.5351 14.6316C16.6603 14.6316 16.7766 14.627 16.884 14.6178C16.984 14.6101 17.0829 14.5917 17.1791 14.5628V10.8061C17.1066 10.786 17.0326 10.7722 16.9578 10.7648C16.8664 10.7554 16.7746 10.7508 16.6827 10.7511Z" fill="#FF61F6"/>
</svg>
