<svg width="24" height="24" viewBox="0 0 24 24" fill="none" xmlns="http://www.w3.org/2000/svg">
<path d="M10.626 6.38976C10.6961 6.38976 10.7593 6.4281 10.8147 6.5012C10.9539 6.71725 11.1944 7.2014 11.5498 8.28232C11.7932 9.02229 12.0588 9.93927 12.3397 11.0087C11.2741 10.9923 10.1958 10.9795 9.15186 10.9677L8.623 10.9618C9.2202 8.62705 9.94881 6.85496 10.4814 6.43668C10.5153 6.41499 10.5682 6.38976 10.626 6.38976Z" fill="#007FD2"/>
<path fill-rule="evenodd" clip-rule="evenodd" d="M12.0005 1.99951C17.5233 1.99966 21.9998 6.47625 22 11.999C22 17.5217 17.5234 21.9994 12.0005 21.9995C6.47747 21.9995 2 17.5218 2 11.999C2.00019 6.47617 6.47759 1.99951 12.0005 1.99951ZM10.6769 5.05342C9.44227 5.05951 8.32896 7.04231 7.36781 10.9472C6.68883 10.9385 6.06963 10.9289 5.486 10.9188C5.45303 10.9182 5.42344 10.9178 5.39704 10.9178C5.27254 10.9178 5.21112 10.9236 5.181 10.9276C4.85249 10.986 4.61401 11.2729 4.61401 11.61C4.61418 11.9536 4.8712 12.248 5.20544 12.2962L5.21228 12.303H7.05303C6.88215 13.0844 6.73237 13.8579 6.60726 14.6023L6.55252 14.9298V14.9454C6.55383 15.1981 6.7604 15.4039 7.01295 15.4039C7.17304 15.4037 7.31818 15.3198 7.40105 15.1898L7.41375 15.2005L8.31898 12.303H12.6799C13.013 13.5617 13.3582 14.8616 13.8148 16.0813C14.059 16.7335 14.6308 18.2614 15.5862 18.2691H15.5969C17.0756 18.2691 17.6523 15.8804 18.034 14.2992C18.1159 13.9591 18.1871 13.6646 18.254 13.4488L18.2804 13.3598C18.2867 13.3391 18.2901 13.3172 18.2901 13.2943C18.2901 13.1678 18.1869 13.0646 18.0604 13.0646C17.9624 13.0647 17.879 13.1266 17.8463 13.2132L17.8141 13.3021C17.6886 13.6494 17.5718 13.9778 17.469 14.2689L17.4612 14.2904C16.8212 16.1031 16.529 16.9306 15.9567 16.9308H15.943L15.9352 16.9318H15.9205C15.1881 16.9311 14.4988 13.9538 14.2391 12.8329C14.1941 12.6387 14.1529 12.4599 14.115 12.303H18.8513C18.9402 12.303 19.0241 12.281 19.0976 12.2424L19.0996 12.2415C19.1068 12.2377 19.114 12.2338 19.1211 12.2297C19.1291 12.2251 19.1369 12.2201 19.1445 12.2151C19.1483 12.2127 19.1517 12.2098 19.1553 12.2072C19.1666 12.1995 19.1778 12.1916 19.1885 12.1828L19.1905 12.1808C19.3098 12.0831 19.386 11.9345 19.386 11.7703C19.3858 11.5137 19.2053 11.3 18.9617 11.2512L18.9568 11.2502C18.9542 11.2498 18.9516 11.2487 18.949 11.2483L18.9392 11.2473C18.9134 11.2431 18.8869 11.2399 18.8601 11.2395L18.7897 11.2336C17.1147 11.1137 15.3913 11.0665 13.7748 11.0342L13.7718 11.0224C12.9851 8.07137 12.002 5.05342 10.6769 5.05342Z" fill="#007FD2"/>
</svg>
