<svg width="24" height="24" viewBox="0 0 24 24" fill="none" xmlns="http://www.w3.org/2000/svg">
<path d="M21.9849 8.80366C21.9803 8.77944 21.9763 8.75522 21.9698 8.73147C21.9658 8.71718 21.9609 8.70374 21.9564 8.68967C21.9498 8.66856 21.9425 8.64772 21.9343 8.62717C21.9284 8.61295 21.9216 8.59921 21.9152 8.58546C21.9062 8.56604 21.8964 8.54701 21.8858 8.52842C21.8783 8.51467 21.8696 8.5017 21.8613 8.48858C21.8413 8.45746 21.8194 8.42766 21.7955 8.39936C21.7819 8.38333 21.7678 8.3678 21.753 8.3528C21.7417 8.34147 21.7304 8.33014 21.7185 8.31912C21.7029 8.30486 21.6866 8.29131 21.6698 8.2785C21.6569 8.2685 21.6442 8.25819 21.6307 8.24904C21.6259 8.24561 21.6216 8.24154 21.6165 8.23826L12.4765 2.14444C12.1879 1.95185 11.8118 1.95185 11.5233 2.14444L2.38266 8.23811C2.37758 8.24131 2.37359 8.24537 2.36844 8.24889C2.355 8.25826 2.34234 8.26826 2.32938 8.27826C2.31278 8.2913 2.29652 8.30477 2.28063 8.31866C2.26882 8.32944 2.25741 8.34065 2.24641 8.35225C2.23133 8.36741 2.21734 8.38272 2.20359 8.39889C2.19344 8.411 2.18367 8.42311 2.17422 8.43662C2.16133 8.45358 2.14945 8.47084 2.13789 8.48889C2.12953 8.50209 2.12117 8.51499 2.11336 8.52874C2.10288 8.54717 2.09318 8.56604 2.0843 8.5853C2.07781 8.59905 2.07086 8.61303 2.06516 8.62702C2.0568 8.64749 2.04953 8.6685 2.04281 8.68952C2.03828 8.70358 2.03344 8.71725 2.02961 8.72991C2.02336 8.75358 2.01883 8.77757 2.01453 8.8021C2.01219 8.81452 2.00914 8.82663 2.0075 8.83929C2.00266 8.8764 2 8.91358 2 8.95155V15.0466C2 15.0843 2.00266 15.122 2.00805 15.1589C2.01 15.1724 2.01352 15.1831 2.01617 15.1961C2.02047 15.2203 2.02422 15.2445 2.03234 15.2688C2.03609 15.2822 2.04039 15.2958 2.04578 15.3105C2.0525 15.3321 2.05922 15.3537 2.06734 15.3733C2.07297 15.3868 2.08078 15.4002 2.08617 15.4137C2.09508 15.4326 2.10508 15.4514 2.11586 15.4711C2.12336 15.4845 2.13195 15.498 2.14008 15.5104C2.15164 15.5293 2.1643 15.5455 2.17773 15.5616C2.18719 15.5751 2.19664 15.5858 2.20742 15.5987C2.22109 15.6149 2.2343 15.6311 2.25047 15.6454C2.26148 15.6561 2.27203 15.6696 2.28547 15.6776C2.30109 15.6912 2.31781 15.7046 2.33391 15.7186C2.34687 15.7294 2.36094 15.7375 2.37164 15.748C2.3768 15.7506 2.37977 15.756 2.38516 15.7584L11.5233 21.8554C11.664 21.9504 11.8302 22.0008 12 22C12.1696 21.9996 12.3354 21.9494 12.4767 21.8554L21.6173 15.7616C21.6224 15.7585 21.6267 15.7547 21.6316 15.7512C21.645 15.7418 21.6577 15.7318 21.6706 15.7219C21.6873 15.7086 21.7038 15.6949 21.7194 15.6809C21.7312 15.6704 21.7425 15.6588 21.7538 15.6475C21.7798 15.6213 21.8038 15.5933 21.8257 15.5637C21.8387 15.5468 21.8505 15.5293 21.8621 15.5115C21.8705 15.4986 21.8788 15.4854 21.8866 15.4722C21.8974 15.4533 21.9068 15.4342 21.9159 15.4148C21.9224 15.4011 21.9292 15.3873 21.9351 15.3733C21.9434 15.3526 21.9505 15.3315 21.9572 15.3105C21.9617 15.2965 21.9666 15.2828 21.9706 15.2688C21.9769 15.2451 21.9812 15.2208 21.9857 15.1966C21.9879 15.1842 21.9912 15.1721 21.9924 15.1594C21.9973 15.1223 22 15.0851 22 15.0472V8.95311C22 8.91515 21.997 8.87796 21.9924 8.84077C21.9903 8.82757 21.9862 8.81686 21.9836 8.80366H21.9849ZM11.9998 14.033L8.96031 12.0001L11.9998 9.96688L15.0394 12.0001L11.9998 14.033ZM11.1405 8.47397L7.41461 10.9662L4.40703 8.95413L11.1406 4.46517L11.1405 8.47397ZM5.86891 11.9998L3.71914 13.4378V10.5619L5.86891 11.9998ZM7.41461 13.0346L11.1406 15.5265V19.5353L4.40703 15.0458L7.41461 13.0346ZM12.8591 15.526L16.5851 13.0341L19.593 15.0458L12.8591 19.5347V15.526ZM18.1308 12.0003L20.2809 10.5621V13.4383L18.1308 12.0003ZM16.5851 10.9661L12.8591 8.4742V4.46517L19.593 8.95421L16.5851 10.9661Z" fill="#CCCCCC"/>
</svg>
