<svg width="24" height="24" viewBox="0 0 24 24" fill="none" xmlns="http://www.w3.org/2000/svg">
<g clip-path="url(#clip0_22203_13473)">
<path d="M11.9961 12.0033C11.9961 10.3652 13.3212 9.03047 14.9625 9.03047C16.597 9.03047 17.9289 10.3585 17.9289 12.0033C17.9289 13.6414 16.6037 14.9762 14.9625 14.9762C13.3279 14.9762 11.9961 13.6414 11.9961 12.0033Z" fill="#1ABCFE"/>
<path d="M6.07031 17.942C6.07031 16.3039 7.39543 14.9691 9.0367 14.9691H12.0031V17.942C12.0031 19.5801 10.678 20.9148 9.0367 20.9148C7.39543 20.9148 6.07031 19.5868 6.07031 17.942Z" fill="#0ACF83"/>
<path d="M11.9961 3.09124V9.03019H14.9625C16.597 9.03019 17.9289 7.70219 17.9289 6.05735C17.9289 4.41925 16.6037 3.0845 14.9625 3.0845H11.9961V3.09124Z" fill="#FF7262"/>
<path d="M6.07031 6.06293C6.07031 7.70103 7.39543 9.03578 9.0367 9.03578H12.0031V3.09009H9.0367C7.39543 3.09009 6.07031 4.41809 6.07031 6.06293Z" fill="#F24E1E"/>
<path d="M6.07031 12.0033C6.07031 13.6414 7.39543 14.9762 9.0367 14.9762H12.0031V9.03047H9.0367C7.39543 9.03047 6.07031 10.3652 6.07031 12.0033Z" fill="#A259FF"/>
</g>
<defs>
<clipPath id="clip0_22203_13473">
<rect width="11.8588" height="18" fill="white" transform="translate(6.07031 2.99982)"/>
</clipPath>
</defs>
</svg>
