<svg width="24" height="24" viewBox="0 0 24 24" fill="none" xmlns="http://www.w3.org/2000/svg">
<path fill-rule="evenodd" clip-rule="evenodd" d="M12.0122 2.16663C6.47786 2.16663 2.00391 6.67357 2.00391 12.2493C2.00391 16.7062 4.87052 20.4789 8.84728 21.8142C9.34448 21.9146 9.5266 21.5973 9.5266 21.3303C9.5266 21.0966 9.51021 20.2954 9.51021 19.4606C6.72615 20.0616 6.1464 18.2587 6.1464 18.2587C5.69898 17.0901 5.03605 16.7898 5.03605 16.7898C4.12483 16.1721 5.10243 16.1721 5.10243 16.1721C6.11321 16.2389 6.6436 17.2071 6.6436 17.2071C7.53822 18.7427 8.97983 18.3088 9.55979 18.0417C9.64255 17.3907 9.90785 16.94 10.1895 16.6896C7.96905 16.4559 5.63281 15.5879 5.63281 11.715C5.63281 10.6132 6.03024 9.71186 6.65998 9.01082C6.56063 8.76048 6.21257 7.72532 6.75955 6.33985C6.75955 6.33985 7.6046 6.07271 9.51001 7.3748C10.3258 7.1541 11.1671 7.04183 12.0122 7.04088C12.8572 7.04088 13.7187 7.15786 14.5141 7.3748C16.4198 6.07271 17.2648 6.33985 17.2648 6.33985C17.8118 7.72532 17.4635 8.76048 17.3642 9.01082C18.0105 9.71186 18.3916 10.6132 18.3916 11.715C18.3916 15.5879 16.0553 16.4391 13.8182 16.6896C14.1829 17.0067 14.4976 17.6076 14.4976 18.5592C14.4976 19.9113 14.4812 20.9964 14.4812 21.3301C14.4812 21.5973 14.6635 21.9146 15.1605 21.8144C19.1372 20.4787 22.0039 16.7062 22.0039 12.2493C22.0203 6.67357 17.5299 2.16663 12.0122 2.16663Z" fill="black"/>
</svg>
