<svg width="24" height="24" viewBox="0 0 24 24" fill="none" xmlns="http://www.w3.org/2000/svg">
<g clip-path="url(#clip0_22203_13480)">
<path d="M12.0062 21.1933L15.6862 9.86755H8.32617L12.0062 21.1933Z" fill="#E24329"/>
<path d="M12.0054 21.1933L8.32531 9.86748H3.16797L12.0054 21.1933Z" fill="#FC6D26"/>
<path d="M3.16827 9.86748L2.04999 13.3094C2.00027 13.4624 2.00026 13.6272 2.04997 13.7802C2.09968 13.9332 2.19656 14.0666 2.32671 14.1611L12.0057 21.1933L3.1682 9.86756L3.16827 9.86748Z" fill="#FCA326"/>
<path d="M3.16797 9.86755H8.32531L6.10898 3.04607C5.99492 2.69505 5.49836 2.69513 5.38437 3.04607L3.16797 9.86755Z" fill="#E24329"/>
<path d="M12.0059 21.1933L15.6859 9.86748H20.8434L12.0059 21.1933Z" fill="#FC6D26"/>
<path d="M20.8433 9.86748L21.9616 13.3094C22.0113 13.4624 22.0113 13.6272 21.9615 13.7802C21.9118 13.9332 21.8149 14.0666 21.6848 14.1611L12.0059 21.1933L20.8433 9.86756V9.86748Z" fill="#FCA326"/>
<path d="M20.843 9.86755H15.6855L17.902 3.04607C18.016 2.69505 18.5126 2.69513 18.6266 3.04607L20.843 9.86755Z" fill="#E24329"/>
</g>
<defs>
<clipPath id="clip0_22203_13480">
<rect width="20" height="18.44" fill="white" transform="translate(2 2.75)"/>
</clipPath>
</defs>
</svg>
