<svg width="24" height="24" viewBox="0 0 24 24" fill="none" xmlns="http://www.w3.org/2000/svg">
<path d="M8.74883 2.01018L9.80149 2H14.1513L15.6081 2.01795L16.4497 2.04615L16.9253 2.06691C17.7749 2.10555 18.3466 2.21818 18.7611 2.34004L18.9918 2.41375L19.1906 2.48656C19.76 2.70709 20.166 2.97219 20.5934 3.39898C21.0208 3.82576 21.2841 4.23234 21.5058 4.80178L21.579 5.00016L21.6528 5.23075C21.7748 5.64509 21.8868 6.21748 21.9254 7.06706L21.9675 8.10928L21.9885 9.2525L21.9955 10.8378L21.9914 14.3622L21.9743 15.634L21.9594 16.1243L21.9254 16.9259C21.8868 17.7755 21.7742 18.3479 21.6523 18.7622L21.5786 18.9928L21.5058 19.1912C21.2841 19.7606 21.0202 20.1666 20.5934 20.5934C20.1666 21.0202 19.76 21.2841 19.1906 21.5058L18.9922 21.579L18.7616 21.6528C18.3473 21.7748 17.7749 21.8868 16.9253 21.9254L15.8836 21.9675L14.7402 21.9885L13.1546 21.9955L9.78994 21.9924L8.39884 21.9755L7.75151 21.9552L7.06765 21.9254C6.38799 21.8945 5.88573 21.8167 5.49986 21.7243L5.23134 21.6528L5.00075 21.579L4.80237 21.5058C4.23292 21.2841 3.82694 21.0202 3.39957 20.5934C2.97219 20.1666 2.70768 19.7606 2.48715 19.1912L2.41397 18.9928L2.34011 18.7622C2.23036 18.3893 2.12864 17.8884 2.08123 17.1726L2.04011 16.3043L2.01671 15.5736L2 14.1921V9.84164L2.01794 8.38484L2.04615 7.54327L2.06691 7.06766C2.10554 6.21808 2.21818 5.6463 2.34004 5.23187L2.41375 5.00113L2.48656 4.80237C2.70827 4.23293 2.97278 3.82695 3.39897 3.39898C3.82576 2.97219 4.23174 2.70709 4.80177 2.48656L5.00015 2.41338L5.23075 2.33952C5.64509 2.21758 6.21748 2.10555 7.06706 2.06691L8.1198 2.02457L8.74883 2.01018Z" fill="#330000"/>
<path d="M16.9714 9.29532C17.0464 9.29532 17.0797 9.33805 17.0797 9.41497V15.9962C17.0797 16.0902 17.0464 16.1329 16.9714 16.1329H15.338C15.2547 16.1329 15.213 16.0816 15.213 15.9962V9.41497C15.213 9.3295 15.2464 9.29532 15.3214 9.29532H16.9714ZM11.1797 7.11583C11.2297 7.11583 11.261 7.13025 11.277 7.15549L14.3297 15.9876C14.3547 16.0816 14.3297 16.1244 14.2464 16.1244H12.5047C12.4464 16.1329 12.388 16.0902 12.3714 16.0304L11.688 13.9962H8.58804L7.9547 16.0047C7.93804 16.0816 7.87137 16.1329 7.79637 16.1244H6.2297C6.13804 16.1244 6.11304 16.0731 6.13804 15.9705L8.82137 8.04745L8.9047 7.7654C8.92692 7.64574 8.94174 7.52229 8.94915 7.39756L8.9547 7.20985C8.94637 7.16711 8.9797 7.12438 9.02137 7.11583H11.1797ZM10.1214 8.69703H10.1047C10.0547 8.94204 9.9973 9.18705 9.93001 9.43207L9.5689 10.6378C9.526 10.7796 9.48248 10.9221 9.43804 11.0645C9.32137 11.5004 9.19637 11.9022 9.07137 12.2611H11.188C11.1547 12.1415 11.114 12.0066 11.0683 11.8642L10.9214 11.4096L10.7714 10.9107L10.5297 10.1244C10.4741 9.94774 10.4223 9.7787 10.3741 9.61219L10.1214 8.69703ZM16.163 6.43207C16.488 6.43207 16.738 6.53463 16.9214 6.73121C17.1047 6.93634 17.2047 7.20985 17.1964 7.4919C17.2047 7.7825 17.1047 8.06455 16.9047 8.27822C16.713 8.48335 16.4297 8.59446 16.1464 8.57737C15.8714 8.58591 15.6047 8.4748 15.4047 8.27822C15.213 8.06455 15.113 7.7825 15.1214 7.4919C15.113 7.2013 15.2214 6.92779 15.4214 6.73121C15.6214 6.53463 15.888 6.43207 16.163 6.43207Z" fill="#FF9A00"/>
</svg>
