<svg width="24" height="24" viewBox="0 0 24 24" fill="none" xmlns="http://www.w3.org/2000/svg">
<path d="M8.74883 2.01018L9.80149 2H14.1513L15.6081 2.01795L16.4497 2.04615L16.9253 2.06691C17.7749 2.10555 18.3466 2.21818 18.7611 2.34004L18.9918 2.41375L19.1906 2.48656C19.76 2.70709 20.166 2.97219 20.5934 3.39898C21.0208 3.82576 21.2841 4.23234 21.5058 4.80178L21.579 5.00016L21.6528 5.23075C21.7748 5.64509 21.8868 6.21748 21.9254 7.06706L21.9675 8.10928L21.9885 9.2525L21.9955 10.8378L21.9914 14.3622L21.9743 15.634L21.9594 16.1243L21.9254 16.9259C21.8868 17.7755 21.7742 18.3479 21.6523 18.7622L21.5786 18.9928L21.5058 19.1912C21.2841 19.7606 21.0202 20.1666 20.5934 20.5934C20.1666 21.0202 19.76 21.2841 19.1906 21.5058L18.9922 21.579L18.7616 21.6528C18.3473 21.7748 17.7749 21.8868 16.9253 21.9254L15.8836 21.9675L14.7402 21.9885L13.1546 21.9955L9.78994 21.9924L8.39884 21.9755L7.75151 21.9552L7.06765 21.9254C6.38799 21.8945 5.88573 21.8167 5.49986 21.7243L5.23134 21.6528L5.00075 21.579L4.80237 21.5058C4.23292 21.2841 3.82694 21.0202 3.39957 20.5934C2.97219 20.1666 2.70768 19.7606 2.48715 19.1912L2.41397 18.9928L2.34011 18.7622C2.23036 18.3893 2.12864 17.8884 2.08123 17.1726L2.04011 16.3043L2.01671 15.5736L2 14.1921V9.84164L2.01794 8.38484L2.04615 7.54327L2.06691 7.06766C2.10554 6.21808 2.21818 5.6463 2.34004 5.23187L2.41375 5.00113L2.48656 4.80237C2.70827 4.23293 2.97278 3.82695 3.39897 3.39898C3.82576 2.97219 4.23174 2.70709 4.80177 2.48656L5.00015 2.41338L5.23075 2.33952C5.64509 2.21758 6.21748 2.10555 7.06706 2.06691L8.1198 2.02457L8.74883 2.01018Z" fill="#49021F"/>
<path d="M14.9626 6.3808H16.6543C16.696 6.37225 16.7293 6.40644 16.7376 6.44063V14.5945L16.7463 14.925C16.7487 14.9838 16.7515 15.0446 16.7543 15.1073L16.779 15.4498C16.7821 15.5033 16.7849 15.5546 16.7876 15.603C16.7876 15.6629 16.7626 15.7141 16.7043 15.7398C16.271 15.9278 15.8126 16.0646 15.346 16.15C14.9293 16.227 14.496 16.2697 14.0626 16.2697C13.446 16.2782 12.8293 16.15 12.271 15.8851C11.746 15.6372 11.3126 15.227 11.0126 14.7227C10.7043 14.2013 10.5543 13.5517 10.5543 12.774C10.546 12.1415 10.7043 11.5176 11.0126 10.9705C11.3293 10.415 11.7876 9.95345 12.3376 9.64576C12.921 9.31242 13.621 9.15003 14.446 9.15003L14.5515 9.15256L14.8793 9.17567V6.47482C14.8793 6.41499 14.9043 6.3808 14.9626 6.3808ZM7.52096 7.11584H9.14596C9.19596 7.10729 9.24596 7.14148 9.2543 7.20131L9.26159 7.21413L9.26263 15.9962C9.26263 16.0902 9.22096 16.1329 9.14596 16.1329H7.51263C7.43763 16.1329 7.4043 16.0902 7.4043 15.9962V7.22695C7.4043 7.15003 7.44596 7.11584 7.52096 7.11584ZM14.3793 10.7398C14.0543 10.7398 13.7293 10.8081 13.4376 10.962C13.1543 11.1073 12.9126 11.321 12.7293 11.5945C12.546 11.868 12.4543 12.2355 12.4543 12.6799C12.446 12.9791 12.496 13.2782 12.596 13.5603C12.6793 13.7911 12.8043 13.9962 12.971 14.1671C13.1293 14.321 13.321 14.4406 13.5376 14.509C13.7626 14.5859 13.996 14.6201 14.2293 14.6201C14.3543 14.6201 14.471 14.6116 14.5793 14.603C14.6876 14.6116 14.7876 14.5945 14.8793 14.5603V10.7996C14.8043 10.7825 14.7293 10.7654 14.6543 10.7569C14.5626 10.7483 14.471 10.7398 14.3793 10.7398Z" fill="#FF3366"/>
</svg>
