<svg width="24" height="24" viewBox="0 0 24 24" fill="none" xmlns="http://www.w3.org/2000/svg">
<path d="M16.9732 8.96297C15.4123 8.96297 13.8247 10.3736 13.0311 11.8583L13.613 9.19349H9.08899L8.45395 11.5406H10.5706L9.26719 16.7688C8.4893 18.5013 7.21663 18.9385 6.54697 19.0253L6.35683 19.0422C6.3289 19.0434 6.30297 19.044 6.27919 19.044L6.16358 19.0383C6.14904 19.0366 6.13698 19.0346 6.12754 19.0325C5.74007 18.9449 5.49227 18.7975 5.49227 18.2931C5.49227 18.0506 5.52902 17.7199 5.61783 17.3247L7.66199 9.19349H2.63504L2 11.5406H4.09L2.74088 17.0632C2.63504 17.5139 2.58201 18.0005 2.58201 18.3974C2.58201 19.9616 3.42861 21 5.22778 21C6.7199 21 7.92958 20.1123 8.80058 18.6788L8.26873 20.8172H11.2317L12.9251 14.0124C13.3485 12.2895 14.1686 11.3952 15.4123 11.3952C16.3912 11.3952 16.9996 12.0051 16.9996 13.012C16.9996 13.3038 16.9732 13.6215 16.8673 13.9663L15.9941 17.0941C15.8618 17.5447 15.8092 17.9956 15.8092 18.4195C15.8092 19.9043 16.682 20.9904 18.5076 20.9904C20.0686 20.9904 21.312 19.9836 22 17.5714L20.836 17.1212C20.2539 18.7372 19.7511 19.0294 19.3542 19.0294C18.9573 19.0294 18.7456 18.7645 18.7456 18.2347C18.7456 17.9961 18.7988 17.7314 18.8779 17.4125L19.7248 14.3653C19.9363 13.6498 20.0158 13.0153 20.0158 12.4323C20.0158 10.1527 18.6399 8.96297 16.9732 8.96297ZM6.47117 4C5.49215 4 4.67224 4.76867 4.67224 5.77558C4.67224 6.78306 5.49215 7.55196 6.47117 7.55196C7.45019 7.55196 8.27034 6.78318 8.27034 5.77558C8.27034 4.76867 7.45019 4 6.47117 4Z" fill="#DC395F"/>
</svg>
