<svg width="24" height="24" viewBox="0 0 24 24" fill="none" xmlns="http://www.w3.org/2000/svg">
<g clip-path="url(#clip0_22334_50226)">
<path d="M2.6631 11.4375C2.65443 5.97787 7.07413 1.56684 12.5598 1.5495C18.0454 1.53217 22.4911 5.97787 22.4824 11.4462C22.4824 16.9231 18.0454 21.3601 12.5684 21.3515C7.10013 21.3515 2.6631 16.9145 2.6631 11.4375ZM7.64609 13.916C7.68942 14.514 7.70675 15.1206 7.77608 15.7185C7.84541 16.2905 7.71542 16.1605 8.28738 16.2212C9.66529 16.3858 11.0692 16.3598 12.4384 16.1345C13.9377 15.8832 15.3416 15.3892 16.5721 14.4706C17.8807 13.4914 18.6433 12.2001 18.6433 10.5449C18.6433 8.83767 17.9241 7.45977 16.5721 6.41984C14.9169 5.14593 12.6724 5.01593 10.9479 6.09053C9.85594 6.77515 9.14532 7.80641 8.61669 8.95033C7.91474 10.5362 7.67209 12.2001 7.64609 13.916Z" fill="#4264FA"/>
<path d="M16.676 10.3022C16.0434 10.6142 15.4541 10.8915 14.8735 11.1862C14.7521 11.2555 14.6568 11.3508 14.5962 11.4722C14.3015 12.0528 14.0155 12.6421 13.7209 13.2574C13.6256 13.0581 13.5389 12.8934 13.4522 12.7201C13.3222 12.4514 13.1663 12.2001 13.0709 11.9141C12.9063 11.4115 12.5596 11.1169 12.0743 10.9349C11.641 10.7702 11.2337 10.5362 10.7744 10.3196C10.8524 10.2762 10.9044 10.2329 10.9564 10.2156C11.4764 9.96426 11.9963 9.70428 12.5163 9.46163C12.6723 9.3923 12.7936 9.27098 12.8629 9.11499C13.1316 8.54303 13.4176 7.97107 13.7122 7.35577C13.9289 7.78908 14.1542 8.17905 14.3102 8.59502C14.4835 9.12365 14.8995 9.53962 15.4368 9.71295C15.8441 9.86027 16.234 10.0856 16.676 10.3022Z" fill="#4365FA"/>
</g>
<defs>
<clipPath id="clip0_22334_50226">
<rect width="20" height="20" fill="white" transform="translate(2.5 1.5)"/>
</clipPath>
</defs>
</svg>
