<svg width="24" height="24" viewBox="0 0 24 24" fill="none" xmlns="http://www.w3.org/2000/svg">
<g clip-path="url(#clip0_22203_13503)">
<path d="M6.33069 2H17.6654C20.0566 2 21.998 3.9414 21.998 6.33264V17.6674C21.998 20.0586 20.0566 22 17.6654 22H6.33069C3.93945 22 1.99805 20.0586 1.99805 17.6674V6.33264C1.99805 3.9414 3.93945 2 6.33069 2Z" fill="#FFD02F"/>
<path d="M15.7901 4.70068H13.6536L15.4331 7.82775L11.517 4.70068H9.3805L11.3385 8.52457L7.24396 4.70068H5.10742L7.24396 9.56693L5.10742 19.2994H7.24396L11.3385 8.8701L9.3805 19.2994H11.517L15.4331 8.17904L13.6536 19.2994H15.7901L19.7062 7.13093L15.7901 4.70068Z" fill="#050038"/>
</g>
<defs>
<clipPath id="clip0_22203_13503">
<rect width="20" height="20" fill="white" transform="translate(1.99805 2)"/>
</clipPath>
</defs>
</svg>
