<svg width="24" height="24" viewBox="0 0 24 24" fill="none" xmlns="http://www.w3.org/2000/svg">
<path d="M8.75037 2.01032L9.80327 2.00014H14.1541L15.6112 2.01809L16.453 2.0463L16.9287 2.06707C17.7785 2.10571 18.3504 2.21837 18.7649 2.34026L18.9957 2.41399L19.1945 2.48682C19.7641 2.70739 20.1701 2.97256 20.5976 3.39945C21.0251 3.82633 21.2885 4.233 21.5102 4.80258L21.5834 5.00101L21.6573 5.23166C21.7793 5.6461 21.8913 6.21862 21.93 7.0684L21.972 8.11087L21.993 9.25436L22 10.84L21.9959 14.3653L21.9788 15.6373L21.9639 16.1277L21.93 16.9296C21.8913 17.7793 21.7787 18.3519 21.6568 18.7663L21.583 18.997L21.5102 19.1954C21.2885 19.765 21.0245 20.171 20.5976 20.5979C20.1707 21.0248 19.7641 21.2888 19.1945 21.5106L18.9961 21.5838L18.7654 21.6576C18.351 21.7796 17.7785 21.8917 16.9287 21.9303L15.8868 21.9723L14.7431 21.9934L13.1572 22.0003L9.79171 21.9973L8.4003 21.9804L7.75282 21.9601L7.0688 21.9303C6.38899 21.8994 5.88661 21.8215 5.50066 21.7291L5.23207 21.6576L5.00143 21.5838L4.803 21.5106C4.23343 21.2888 3.82736 21.0248 3.39988 20.5979C2.97241 20.171 2.70784 19.765 2.48726 19.1954L2.41406 18.997L2.34019 18.7663C2.23041 18.3933 2.12867 17.8923 2.08125 17.1763L2.04012 16.3078L2.01672 15.577L2 14.1951V9.84364L2.01795 8.38649L2.04616 7.54472L2.06692 7.06899C2.10557 6.21922 2.21823 5.6473 2.34012 5.23277L2.41384 5.00198L2.48667 4.80317C2.70843 4.2336 2.973 3.82752 3.39929 3.39945C3.82617 2.97256 4.23224 2.70739 4.80241 2.48682L5.00083 2.41361L5.23148 2.33974C5.64592 2.21777 6.21844 2.10571 7.06821 2.06707L8.12119 2.02471L8.75037 2.01032Z" fill="#001E36"/>
<path d="M16.3068 9.20524C16.6527 9.20239 16.9982 9.2277 17.3401 9.28094C17.5878 9.31315 17.8298 9.38031 18.0595 9.48051C18.0965 9.49139 18.1263 9.51942 18.14 9.55622C18.1491 9.58983 18.1536 9.62457 18.1535 9.65945V11.0496C18.1554 11.0825 18.14 11.114 18.1132 11.1322C18.0768 11.1507 18.0341 11.1507 17.9977 11.1322C17.7455 10.9993 17.4769 10.9021 17.1992 10.8431C16.8933 10.7711 16.5805 10.7342 16.2666 10.733C16.0968 10.7283 15.9272 10.7492 15.7633 10.795C15.659 10.8188 15.5663 10.8798 15.5016 10.967C15.4579 11.0368 15.4346 11.118 15.4345 11.201C15.437 11.2815 15.4653 11.3589 15.5151 11.4212C15.5934 11.5153 15.6892 11.5925 15.7969 11.6483C15.9882 11.754 16.1853 11.8482 16.3873 11.9305C16.8377 12.0851 17.2681 12.2954 17.6689 12.5568C17.942 12.7335 18.1679 12.9771 18.3265 13.2656C18.4598 13.5388 18.5266 13.8411 18.5211 14.1465C18.5291 14.5498 18.4167 14.946 18.199 15.282C17.9659 15.6231 17.6422 15.8882 17.2663 16.0459C16.8591 16.2294 16.3559 16.3211 15.7566 16.3212C15.3759 16.3252 14.9959 16.2882 14.6226 16.2111C14.3286 16.1558 14.0424 16.0633 13.7705 15.9358C13.7106 15.9041 13.674 15.8397 13.6765 15.7706V14.2841C13.6733 14.2545 13.6862 14.2254 13.7101 14.2084C13.7337 14.1947 13.7631 14.1975 13.7839 14.2153C14.105 14.4095 14.4536 14.5511 14.8172 14.6351C15.1377 14.7175 15.4665 14.7614 15.7969 14.7659C16.1099 14.7659 16.3403 14.7246 16.488 14.642C16.6242 14.578 16.711 14.4378 16.7094 14.2841C16.7094 14.165 16.6423 14.0503 16.5081 13.94C16.3739 13.8299 16.1011 13.6969 15.6895 13.5409C15.2681 13.3905 14.8686 13.1821 14.5018 12.9215C14.2395 12.7344 14.0235 12.4869 13.8711 12.1989C13.7392 11.9277 13.6724 11.628 13.6765 11.3249C13.6758 10.9607 13.7733 10.6034 13.9583 10.2926C14.1693 9.9503 14.4722 9.67785 14.8307 9.50804C15.2242 9.30632 15.7163 9.20538 16.3068 9.20524ZM9.17226 7.09219C9.85207 7.09219 10.4246 7.17937 10.89 7.35372C11.3097 7.49935 11.6926 7.73915 12.0106 8.05567C12.2801 8.33003 12.4884 8.6611 12.6211 9.02604C12.7467 9.3812 12.8103 9.75625 12.8091 10.134C12.8091 10.8683 12.6435 11.4739 12.3125 11.9509C11.9793 12.4298 11.5109 12.7925 10.9705 12.9901C10.4069 13.2058 9.78056 13.2789 9.09177 13.2789C8.89486 13.2789 8.75619 13.2766 8.67574 13.272C8.59523 13.2675 8.47447 13.2652 8.31343 13.2651V16.0112C8.31818 16.0454 8.30699 16.0798 8.28323 16.1042C8.26738 16.1204 8.24719 16.1309 8.22563 16.1347L6.59491 16.1351C6.53223 16.1351 6.50098 16.0986 6.50098 16.025V7.22985C6.50098 7.16575 6.52784 7.1335 6.58152 7.1335C6.7245 7.1335 6.85505 7.13135 7.05195 7.12661C7.24865 7.1221 7.46113 7.11752 7.68938 7.11286C7.91755 7.10833 8.15911 7.10374 8.41408 7.09908C8.66902 7.09457 8.92175 7.09219 9.17226 7.09219ZM9.22595 8.75765C9.01122 8.75765 8.82111 8.75994 8.65563 8.76452C8.48998 8.76926 8.37591 8.77614 8.31343 8.78516V11.6538C8.42958 11.663 8.53693 11.6676 8.63548 11.6675H9.07833C9.40417 11.6664 9.72787 11.6134 10.0379 11.5104C10.3037 11.4294 10.5413 11.2718 10.7223 11.0562C10.8967 10.8453 10.9839 10.5516 10.984 10.1753C10.991 9.90909 10.9235 9.64635 10.7893 9.4183C10.6483 9.19779 10.4445 9.02719 10.2056 8.9297C9.89365 8.80533 9.56045 8.74682 9.22595 8.75765Z" fill="#31A8FF"/>
</svg>
