<svg width="24" height="24" viewBox="0 0 24 24" fill="none" xmlns="http://www.w3.org/2000/svg">
<path fill-rule="evenodd" clip-rule="evenodd" d="M16.0644 3L16.0636 3.00362L16.2271 3.01041C16.446 3.02716 16.651 3.07771 16.8373 3.16452L16.9735 3.23647C18.1231 3.90853 18.384 6.0077 17.797 8.64617C20.3408 9.43854 22 10.7163 22 12.0646C22 13.4087 20.349 14.6865 17.8214 15.4788C18.4126 18.109 18.1557 20.204 17.0102 20.8761C16.7411 21.0337 16.4313 21.1084 16.0889 21.1084C14.9678 21.1084 13.5002 20.3036 12.0163 18.9014C10.5324 20.3119 9.06482 21.125 7.94374 21.125C7.6013 21.125 7.29148 21.0503 7.0265 20.8927C5.87689 20.2206 5.61598 18.1215 6.20302 15.483C3.65919 14.6906 2 13.4129 2 12.0646C2 10.7204 3.65104 9.44684 6.18671 8.65032C5.5956 6.02014 5.85243 3.92513 6.99796 3.25306C7.22218 3.12169 7.4747 3.04794 7.75082 3.027L7.91928 3.02074C9.04036 3.01659 10.5079 3.82141 11.9918 5.22362C13.4015 3.88364 14.7965 3.0828 15.8937 3.00607L16.0644 3ZM7.07542 15.7319C6.98573 16.1509 6.91235 16.5616 6.86751 16.9516C6.67998 18.5363 6.92051 19.7684 7.47493 20.092C7.59723 20.1625 7.75214 20.1999 7.93559 20.204C8.78353 20.204 10.031 19.5154 11.36 18.2584C10.7852 17.6485 10.2144 16.9516 9.66408 16.1841C8.74684 16.0845 7.87444 15.931 7.07542 15.7319ZM14.34 16.1799C15.2613 16.0804 16.1337 15.9269 16.9327 15.7236C17.0265 16.1426 17.0999 16.545 17.1447 16.9308C17.3363 18.5156 17.0999 19.7477 16.5495 20.0754C16.4272 20.1501 16.2682 20.1833 16.0807 20.1833C15.2369 20.1833 13.9853 19.4988 12.6563 18.2501C13.2271 17.6402 13.7978 16.9474 14.34 16.1799ZM13.1292 16.2753C12.7583 16.2961 12.3791 16.3044 11.9959 16.3044C11.6168 16.3044 11.2417 16.2919 10.8748 16.2753C11.2499 16.7607 11.629 17.2046 12.0082 17.6029C12.3832 17.2046 12.7623 16.7607 13.1292 16.2753ZM10.1574 8.837C10.7648 8.78307 11.3804 8.75403 12 8.75403C12.6156 8.75403 13.2311 8.78307 13.8345 8.83286C14.1728 9.32653 14.5031 9.8534 14.821 10.4093C15.1309 10.9528 15.4121 11.5045 15.669 12.0604C15.4121 12.6163 15.1309 13.1722 14.8251 13.7157C14.5071 14.2757 14.181 14.8068 13.8426 15.3004C13.2352 15.3544 12.6196 15.3834 12 15.3834C11.3844 15.3834 10.7689 15.3544 10.1655 15.3046C9.82715 14.8109 9.49694 14.284 9.17896 13.7281C8.86914 13.1847 8.58785 12.6329 8.33102 12.077C8.58377 11.5211 8.86914 10.9652 9.17489 10.4217C9.49287 9.8617 9.819 9.33068 10.1574 8.837ZM16.1419 13.1764C15.9747 13.5083 15.7994 13.8443 15.6119 14.1762C15.4244 14.5122 15.2246 14.84 15.0249 15.1594C15.6078 15.0723 16.1704 14.9603 16.7044 14.8275C16.5495 14.2882 16.362 13.7323 16.1419 13.1764ZM7.30371 14.8317C7.45455 14.2965 7.64207 13.7447 7.85406 13.193C8.0212 13.5249 8.19649 13.8567 8.3881 14.1886C8.5797 14.5205 8.77538 14.8441 8.97513 15.1594C8.39625 15.0723 7.83775 14.9644 7.30371 14.8317ZM6.41093 9.54641C6.01549 9.67501 5.63229 9.81191 5.2817 9.96541C3.83856 10.5877 2.90501 11.4133 2.90501 12.0646C2.90501 12.7159 3.83856 13.5373 5.2817 14.1637C5.63636 14.3172 6.01957 14.4583 6.42316 14.5869C6.65145 13.7779 6.95312 12.9358 7.32817 12.0729C6.94904 11.2058 6.64329 10.3595 6.41093 9.54641ZM16.6678 12.0563C17.0428 11.1934 17.3445 10.3512 17.5728 9.54226C17.9764 9.67086 18.3596 9.81191 18.7183 9.96541C20.1614 10.5918 21.095 11.4133 21.095 12.0646C21.0909 12.7159 20.1574 13.5415 18.7142 14.1637C18.3636 14.3172 17.9804 14.4541 17.585 14.5827C17.3526 13.7696 17.0469 12.9233 16.6678 12.0563ZM11.9959 10.1687C13.0248 10.1687 13.8589 11.0175 13.8589 12.0646C13.8589 13.1116 13.0248 13.9605 11.9959 13.9605C10.967 13.9605 10.1329 13.1116 10.1329 12.0646C10.1329 11.0175 10.967 10.1687 11.9959 10.1687ZM7.29148 9.29749C7.82552 9.16889 8.3881 9.05688 8.97106 8.96976C8.7713 9.2892 8.57155 9.61693 8.38402 9.95296C8.19649 10.2848 8.0212 10.6167 7.85406 10.9486C7.63392 10.3927 7.44639 9.8368 7.29148 9.29749ZM15.0208 8.96976C15.2205 9.28505 15.4203 9.60863 15.6078 9.94052C15.7994 10.2724 15.9747 10.6043 16.1419 10.9362C16.3539 10.3844 16.5414 9.83266 16.6922 9.29749C16.1582 9.16474 15.5997 9.05688 15.0208 8.96976ZM7.45047 4.05373C7.57277 3.97906 7.73176 3.94587 7.91928 3.94172L8.05586 3.94739C8.8951 4.01534 10.0846 4.69195 11.3437 5.87494C10.7729 6.48478 10.2022 7.17759 9.66001 7.94507C8.73869 8.04463 7.86629 8.19813 7.06726 8.40141C6.9735 7.98655 6.9042 7.58414 6.85528 7.19833C6.66368 5.61358 6.90012 4.38147 7.45047 4.05373ZM16.06 3.92437L15.9273 3.93083C15.0849 3.99919 13.8991 4.67994 12.64 5.87079C13.2148 6.48063 13.7856 7.17759 14.3359 7.94507C15.2532 8.04463 16.1256 8.19813 16.9246 8.39726C17.0143 7.97826 17.0876 7.56755 17.1325 7.17759C17.32 5.59284 17.0795 4.36072 16.5251 4.03714C16.424 3.98072 16.3072 3.94554 16.1685 3.93372L16.0603 3.92927L16.06 3.92437ZM10.8667 7.8538C11.2336 7.36842 11.6127 6.92453 11.9878 6.52626C12.3669 6.92453 12.746 7.36842 13.1211 7.8538C12.7542 7.8372 12.3791 7.82476 12 7.82476C11.6168 7.82476 11.2377 7.83306 10.8667 7.8538Z" fill="#61DAFB"/>
</svg>
