<svg width="24" height="24" viewBox="0 0 24 24" fill="none" xmlns="http://www.w3.org/2000/svg">
<path d="M6.36357 3.59271L12 3L17.6364 3.59271L22 9.42857L12 21L2 9.42857L6.36357 3.59271Z" fill="#FDB300"/>
<path d="M6.05068 9.42857L12 21L2 9.42857H6.05068Z" fill="#EA6C00"/>
<path d="M17.949 9.42857L11.999 21L21.999 9.42857H17.949Z" fill="#EA6C00"/>
<path d="M6.05078 9.42857H17.9494L12.0001 21L6.05078 9.42857Z" fill="#FDAD00"/>
<path d="M12.0001 3L6.36367 3.59271L6.05078 9.42857L12.0001 3Z" fill="#FDD231"/>
<path d="M11.999 3L17.6355 3.59271L17.9483 9.42857L11.999 3Z" fill="#FDD231"/>
<path d="M21.9994 9.42857L17.6358 3.59271L17.9493 9.42857H21.9994ZM2 9.42857L6.36357 3.59271L6.05068 9.42857H2Z" fill="#FDAD00"/>
<path d="M12.0001 3L6.05078 9.42857H17.9494L12.0001 3Z" fill="#FEEEB7"/>
</svg>
