<svg width="24" height="24" viewBox="0 0 24 24" fill="none" xmlns="http://www.w3.org/2000/svg">
<path fill-rule="evenodd" clip-rule="evenodd" d="M18.946 2.00525C19.0813 1.99151 19.2182 2.00603 19.3479 2.04695C19.4776 2.08788 19.5978 2.15488 19.7007 2.24376C19.8035 2.33263 19.8874 2.4417 19.9467 2.56399C20.006 2.68629 20.0398 2.81935 20.0459 2.95511V21.0008C20.0458 21.2658 19.9405 21.5198 19.7532 21.7072C19.5657 21.8947 19.3112 21.9999 19.046 21.9999C19.0294 22.0003 19.0126 22.0003 18.996 21.9999L5.59951 21.4003C5.33439 21.4003 5.07979 21.295 4.89232 21.1076C4.70493 20.9201 4.59961 20.6655 4.59961 20.4004V20.4504L4 3.95501C4 3.40516 4.4 2.95506 4.94986 2.90508L15.9913 2.19456L15.847 4.50458L15.8971 4.45455C15.887 4.48664 15.8884 4.52153 15.9004 4.55295C15.9124 4.58421 15.9342 4.61078 15.9629 4.62801C15.9917 4.64528 16.0255 4.6522 16.0588 4.64802C16.0922 4.6438 16.1236 4.6286 16.1472 4.60466L16.997 3.90498L17.7467 4.45455C17.7675 4.47327 17.7934 4.48632 17.821 4.49124C17.8484 4.49606 17.8768 4.49242 17.9027 4.48207C17.9286 4.47166 17.9512 4.45453 17.9677 4.43203C17.9843 4.40944 17.994 4.38242 17.9961 4.35447L17.9486 2.06863L18.946 2.00525ZM12.3478 5.40441C9.69856 5.40446 8.24895 6.80427 8.24895 8.95368C8.24916 12.6525 13.2476 12.7527 13.2476 14.7521C13.2476 15.3518 12.9976 15.702 12.3478 15.702C11.5481 15.7019 11.2479 15.2517 11.2978 13.9023C11.2978 13.6024 8.24885 13.5024 8.14887 13.9023C7.89902 17.2513 9.99852 18.2013 12.3978 18.2013C14.6972 18.2013 16.5466 16.9514 16.5467 14.7021C16.5467 10.7532 11.4483 10.8529 11.448 8.90364C11.448 8.10388 12.048 8.00382 12.4479 8.00381C12.7478 8.00381 13.4477 8.00369 13.3977 9.50324H13.3477C13.3477 9.95304 15.9958 9.75311 16.3465 9.50324C16.3465 6.80398 14.9471 5.40441 12.3478 5.40441Z" fill="#FF4785"/>
</svg>
