<svg width="24" height="24" viewBox="0 0 24 24" fill="none" xmlns="http://www.w3.org/2000/svg">
<path d="M11.4145 15.5127H12.5242V12.4875H15.3151V11.4119H12.5242V8.38673H11.4145V11.4119H8.65723V12.4875H11.4145V15.5127Z" fill="#E8762D"/>
<path d="M6.26956 19.8823H7.21109V17.1933H9.6994V16.353H7.21109V13.6303H6.26956V16.353H3.78125V17.1933H6.26956V19.8823Z" fill="#C72037"/>
<path d="M16.7276 10.1683H17.6691V7.47932H20.191V6.67261H17.6691V3.94997H16.7276V6.67261H14.2393V7.47932H16.7276V10.1683Z" fill="#5B879B"/>
<path d="M11.5827 22.0001H12.3897V20.0841H14.1046V19.3783H12.3897V17.4623H11.5827V19.3783H9.90137V20.0841H11.5827V22.0001Z" fill="#5C6692"/>
<path d="M6.30319 10.1683H7.17746V7.4457H9.6994V6.67261H7.17746V3.94997H6.30319V6.67261H3.78125V7.4457H6.30319V10.1683Z" fill="#EB9129"/>
<path d="M19.5856 14.2018H20.3926V12.3194H22.1075V11.58H20.3926V9.69763H19.5856V11.58H17.9043V12.3194H19.5856V14.2018Z" fill="#5C6692"/>
<path fill-rule="evenodd" clip-rule="evenodd" d="M16.7276 19.8823H17.6691V17.1933H20.191V16.353H17.6691V13.6303H16.7276V16.353H14.2393V17.1933H16.7276V19.8823Z" fill="#1F457E"/>
<path d="M13.97 4.42013V3.84871H12.2887V2H11.6834V3.84871H10.0021V4.42013H11.6834V6.26883H12.2887V4.42013H13.97ZM3.51235 14.067H4.11761V12.2183H5.7989V11.6469H4.11761V9.83179H3.51235V11.6469H1.83105V12.2519L3.51235 12.2183V14.067Z" fill="#7199A6"/>
</svg>
