<svg width="24" height="24" viewBox="0 0 24 24" fill="none" xmlns="http://www.w3.org/2000/svg">
<path d="M12 6.00005C9.33325 6.00005 7.66663 7.33305 6.99988 9.9988C8 8.6658 9.16669 8.16611 10.4999 8.49923C11.2607 8.6893 11.8044 9.24126 12.4064 9.85199C13.3868 10.8469 14.5214 11.9983 17.0001 11.9983C19.6666 11.9983 21.3335 10.6653 22 7.9993C21.0001 9.3323 19.8334 9.83223 18.4999 9.49911C17.7394 9.30904 17.1957 8.75708 16.5937 8.14635C15.6134 7.15148 14.4784 6.00005 12 6.00005ZM6.99988 11.9983C4.33338 11.9983 2.6665 13.3313 2 15.9973C2.99988 14.6643 4.16656 14.1644 5.50006 14.4977C6.2606 14.6881 6.8043 15.2398 7.40628 15.8502C8.38665 16.8451 9.52157 17.9968 12 17.9968C14.6668 17.9968 16.3334 16.6638 17.0001 13.9978C16 15.3308 14.8333 15.8307 13.5001 15.4974C12.7393 15.3075 12.1956 14.7553 11.5936 14.1449C10.6132 13.15 9.47856 11.9983 6.99988 11.9983Z" fill="#06B6D4"/>
</svg>
