<svg width="24" height="24" viewBox="0 0 24 24" fill="none" xmlns="http://www.w3.org/2000/svg">
<path d="M13.9134 15.5633C14.204 15.5633 14.4655 15.6056 14.6978 15.6909C14.9302 15.7763 15.1275 15.8928 15.2887 16.0394C15.45 16.1868 15.5737 16.3589 15.6608 16.5567C15.7477 16.7542 15.7914 16.9652 15.7914 17.1899C15.7914 17.389 15.7702 17.5643 15.7275 17.716C15.6849 17.8678 15.6221 18.0008 15.5401 18.1146C15.4577 18.2284 15.3568 18.3253 15.2367 18.4042C15.1164 18.4831 14.9801 18.5481 14.8283 18.5986C15.5461 18.8422 15.9052 19.3278 15.9052 20.0553C15.9052 20.3747 15.8477 20.6553 15.7325 20.8966C15.6169 21.139 15.4616 21.3419 15.2671 21.5062C15.0727 21.6705 14.8465 21.7939 14.5888 21.8763C14.331 21.9587 14.0596 22 13.775 22C13.4747 22 13.2099 21.9653 12.9809 21.8959C12.7514 21.8265 12.5504 21.7209 12.3781 21.5798C12.2057 21.4393 12.0572 21.2643 11.9325 21.0556C11.8075 20.847 11.7008 20.6052 11.6124 20.3302L12.115 20.1172C12.2479 20.0633 12.3725 20.0498 12.4881 20.0769C12.603 20.1037 12.6841 20.1659 12.7315 20.2634C12.7885 20.3708 12.8488 20.4717 12.9122 20.5648C12.9753 20.6584 13.0475 20.7405 13.1281 20.8112C13.2088 20.8828 13.3016 20.9391 13.4059 20.9801C13.5102 21.0209 13.6303 21.0419 13.7662 21.0419C13.9337 21.0419 14.08 21.0136 14.205 20.9585C14.3297 20.9029 14.4329 20.8301 14.5152 20.7405C14.5974 20.65 14.6595 20.5481 14.7007 20.4343C14.7416 20.3205 14.7626 20.2064 14.7626 20.0926C14.7626 19.9474 14.749 19.8143 14.7223 19.6941C14.6953 19.5739 14.6348 19.4712 14.5417 19.3858C14.4483 19.3005 14.3116 19.234 14.1314 19.1866C13.9511 19.1391 13.7059 19.1159 13.3961 19.1159V18.305C13.6552 18.302 13.8682 18.2778 14.0342 18.2334C14.2001 18.189 14.331 18.1261 14.4259 18.0459C14.5205 17.9649 14.5854 17.8699 14.6202 17.7592C14.6549 17.6484 14.6723 17.525 14.6723 17.3892C14.6723 17.1016 14.6001 16.8846 14.4563 16.7393C14.3123 16.594 14.1107 16.5214 13.8516 16.5214C13.6207 16.5214 13.4272 16.5859 13.2724 16.7157C13.1175 16.8455 13.0103 17.0051 12.9504 17.1948C12.8998 17.3401 12.8319 17.4351 12.7482 17.4795C12.6644 17.5237 12.5445 17.5333 12.3899 17.5079L11.7882 17.4029C11.8324 17.0965 11.9162 16.8282 12.0395 16.5989C12.1627 16.3701 12.3172 16.1786 12.5038 16.0256C12.6902 15.8722 12.9031 15.7567 13.1419 15.6791C13.3806 15.6019 13.6383 15.5633 13.9134 15.5633Z" fill="black"/>
<path d="M19.45 15.5633C19.8735 15.5633 20.2483 15.6376 20.574 15.7881C20.8996 15.9381 21.1715 16.1373 21.3897 16.3839L20.9725 16.967C20.9441 17.002 20.9116 17.0338 20.8754 17.0623C20.839 17.0906 20.7875 17.1045 20.7212 17.1045C20.6549 17.1045 20.5905 17.0793 20.5288 17.0289C20.4672 16.9784 20.3912 16.9229 20.3011 16.863C20.211 16.8031 20.0982 16.7465 19.9624 16.6961C19.8264 16.6457 19.6519 16.6205 19.4402 16.6205C19.2093 16.6205 18.9987 16.6692 18.809 16.7658C18.6195 16.8619 18.4568 17.0027 18.3211 17.1869C18.185 17.3724 18.0792 17.5989 18.005 17.8662C17.9306 18.1331 17.8941 18.4377 17.8941 18.7792C17.8941 19.1235 17.9345 19.4305 18.0168 19.699C18.0989 19.9677 18.2107 20.1948 18.3515 20.3803C18.4921 20.5648 18.6575 20.7062 18.8473 20.8024C19.0368 20.8989 19.2408 20.9466 19.4588 20.9467C19.5884 20.9467 19.7059 20.9397 19.8103 20.9251C19.9145 20.9113 20.0117 20.8861 20.1018 20.8495C20.1919 20.8133 20.2769 20.767 20.3561 20.7101C20.4349 20.6532 20.5135 20.5814 20.5926 20.4961C20.624 20.4708 20.6568 20.4499 20.6898 20.4323C20.7229 20.4151 20.7571 20.4058 20.7919 20.4058C20.8583 20.4058 20.9153 20.4319 20.9627 20.4824L21.4614 21.0183C21.2337 21.3379 20.9474 21.581 20.6044 21.7487C20.2612 21.9163 19.8542 22 19.3832 22C18.9564 22 18.5722 21.9204 18.2308 21.7605C17.8893 21.6009 17.5987 21.3779 17.36 21.092C17.1211 20.8056 16.9384 20.4652 16.8103 20.071C16.6823 19.6779 16.6179 19.2469 16.6179 18.7792C16.6179 18.3079 16.6865 17.8756 16.8241 17.4814C16.9616 17.0882 17.1554 16.749 17.4052 16.4644C17.6548 16.1799 17.9535 15.9581 18.3015 15.7999C18.6492 15.6416 19.0325 15.5633 19.45 15.5633Z" fill="black"/>
<path d="M3.53438 15.634C3.64458 15.634 3.7353 15.6594 3.8063 15.7095C3.87739 15.76 3.92613 15.8265 3.95159 15.9088L4.88122 19.5478C4.93485 19.7374 4.98598 19.9571 5.03337 20.2065C5.05857 20.0833 5.08355 19.9655 5.10896 19.8531C5.13418 19.7411 5.16436 19.6377 5.19927 19.5429L6.29971 15.9088C6.32497 15.8361 6.37419 15.772 6.44696 15.7164C6.51945 15.6615 6.60611 15.634 6.7071 15.634H7.07227C7.18279 15.634 7.27215 15.6589 7.34027 15.7076C7.40813 15.7567 7.45708 15.8235 7.48555 15.9088L8.58599 19.5478C8.61743 19.6396 8.64644 19.7398 8.67336 19.8492C8.70008 19.9578 8.72646 20.0725 8.75189 20.1928C8.77388 20.0725 8.79689 19.9585 8.82061 19.8512C8.84432 19.7438 8.86879 19.6436 8.89423 19.5517L9.82386 15.9088C9.84588 15.836 9.89483 15.772 9.96914 15.7164C10.0432 15.6614 10.1311 15.634 10.2322 15.634H11.209L9.3399 21.9332H8.211L6.96331 17.7445C6.94442 17.6908 6.9265 17.631 6.90932 17.5649C6.89185 17.4985 6.875 17.4287 6.85925 17.3558C6.8433 17.4287 6.8262 17.4985 6.80723 17.5649C6.78832 17.631 6.77089 17.6908 6.7552 17.7445L5.48395 21.9332H4.35897L2.4899 15.634H3.53438Z" fill="black"/>
<path d="M5.30136 2.55828C6.44122 2.38702 7.62577 2.81121 8.3926 3.66657C9.35966 4.74487 10.3628 5.81792 11.3327 6.85598L11.3719 6.89819C11.8178 7.3762 12.264 7.85395 12.708 8.33337C12.9679 8.6141 13.2244 8.89894 13.4805 9.1825C14.0041 9.76193 14.5445 10.3596 15.0983 10.9083C15.6635 11.468 16.2483 11.5924 16.9379 11.299C17.3118 11.1394 17.6399 10.8649 18.0011 10.4096C18.2927 10.0423 18.8284 9.98065 19.1957 10.2721C19.5631 10.5642 19.6253 11.0999 19.3342 11.4668C18.7946 12.147 18.2449 12.5906 17.6055 12.8637C16.2738 13.4304 14.9587 13.1642 13.9007 12.1157C13.3147 11.5349 12.7598 10.9212 12.223 10.3271C11.9675 10.0441 11.7154 9.76523 11.4603 9.48976C11.0049 8.99789 10.5467 8.50725 10.0889 8.01728C9.11188 6.97161 8.10141 5.88916 7.12627 4.80137C6.74898 4.38124 6.11724 4.1562 5.55365 4.24084C4.8095 4.35207 4.40277 4.91727 4.19209 5.37171C3.95066 5.89387 4.03098 6.48454 4.40119 6.91389C4.74764 7.31621 5.07147 7.71034 5.38481 8.0909C6.34628 9.25922 7.17655 10.2681 8.2483 11.0378C9.41764 11.8772 9.99112 11.3748 10.4521 10.9711C10.4961 10.9327 10.5369 10.8968 10.5738 10.866C10.8673 10.6224 11.2714 10.6072 11.5791 10.8287C11.896 11.0565 12.0226 11.4602 11.8873 11.8114C11.7543 12.1546 11.4513 12.379 11.1265 12.5977C10.3847 13.0971 9.65738 13.1518 9.17498 13.1494C8.43161 13.1455 7.7336 12.8656 7.1567 12.3395C5.74556 11.0514 4.54047 9.6815 3.11227 8.02513C2.30041 7.08356 2.12201 5.79273 2.64795 4.65706C3.19377 3.47793 4.13638 2.73249 5.30136 2.55828Z" fill="black"/>
<path d="M19.5521 2.0223C20.8042 2.17521 21.6553 3.16481 21.5507 4.19863C21.5096 4.79416 21.077 5.2856 20.5269 5.54645C21.3009 5.88824 21.7915 6.83581 21.6263 7.59418C21.3744 8.75105 20.4409 9.59579 18.9081 9.48976C18.4087 9.45518 17.9169 9.31075 17.4464 9.06176C16.7225 8.67765 13.9207 5.07631 13.9046 5.05562C13.3834 4.38152 12.3705 3.8863 11.2335 4.71695C11.0504 4.85088 10.8261 4.90604 10.6004 4.87107C10.376 4.83604 10.1787 4.71461 10.0447 4.53141C9.91076 4.34823 9.85606 4.12359 9.89061 3.89922C9.92563 3.67435 10.0461 3.47659 10.2293 3.34263C11.8961 2.12505 14.0083 2.40888 15.2514 4.01604C15.2679 4.03675 17.8769 7.31205 18.2435 7.55884C19.3269 8.28855 19.9342 7.64699 19.9536 7.26827C19.9739 7.13667 20.0756 6.31274 19.1054 6.24539L18.752 6.22084C18.4215 6.19736 18.1553 5.88029 18.1807 5.517C18.2044 5.17522 18.5248 4.87578 18.8443 4.89757L19.131 4.91818C19.8915 4.97057 19.8884 4.21657 19.8908 4.18391C19.9058 3.96271 19.7504 3.47623 19.2105 3.43883C18.9242 3.41904 18.6641 3.50139 18.4909 3.59982C18.0077 3.86526 17.7123 3.81159 17.4562 3.50656C17.2219 3.21306 17.2949 2.79688 17.5652 2.57202C18.0707 2.15323 18.7836 1.92496 19.5521 2.0223Z" fill="black"/>
</svg>
