<svg width="24" height="24" viewBox="0 0 24 24" fill="none" xmlns="http://www.w3.org/2000/svg">
<path d="M7.71336 13.9581L4.04185 15.2269L3.98535 18.1799L9.59807 16.24C8.66857 15.5459 8.05712 14.8546 7.71336 13.9581Z" fill="#FECF33"/>
<path d="M2 12.9996L4.04173 15.2273L7.71325 13.9581C7.33147 12.962 7.28421 11.9631 7.55977 11.0781L2 12.9996Z" fill="#F69833"/>
<path d="M11.7649 7.48115C7.13001 9.08315 4.14169 12.3886 5.09089 14.8646L21.8752 9.06334C20.9263 6.58737 16.3998 5.87916 11.7649 7.48115Z" fill="#FECF33"/>
<path d="M21.8858 9.06349L5.10156 14.8647C6.056 17.3551 10.577 18.0488 15.212 16.4466C19.8469 14.8448 22.606 11.5939 21.8858 9.06349Z" fill="#EE6723"/>
<path d="M21.8754 9.06349L5.09082 14.8647C5.41933 15.7222 6.67273 16.1446 8.43136 16.1446C10.1458 16.1446 12.3404 15.7432 14.6284 14.9525C19.2633 13.3505 22.5243 10.7568 21.8754 9.06349Z" fill="#F69833"/>
<path d="M18.5348 7.78332C16.8204 7.78332 14.6258 8.18454 12.3378 8.97533C7.70288 10.5773 4.44208 13.1711 5.0911 14.8646L21.8754 9.06335C21.5469 8.20556 20.2935 7.78332 18.5348 7.78332Z" fill="#FDBD39"/>
<path d="M14.0494 19.2872C13.6742 19.3184 13.2012 18.5734 12.7871 17.2943C12.3452 15.9312 12.0024 14.0969 11.8211 12.1297C11.6399 10.1622 11.6422 8.29902 11.8277 6.88395C12.0016 5.55613 12.3305 4.74447 12.7067 4.71332C13.1016 4.68095 13.594 5.48914 14.0229 6.87699C14.1008 6.86217 14.1787 6.84765 14.2563 6.83419C13.9195 5.74472 13.3565 4.44352 12.6873 4.5019C12.042 4.55543 11.7432 5.81247 11.6062 6.85763C11.419 8.28723 11.4164 10.166 11.5989 12.1477C11.7815 14.1298 12.1276 15.9796 12.5734 17.3566C12.8925 18.3411 13.4008 19.5 14.0269 19.5C14.0408 19.5 14.0549 19.4995 14.0691 19.4985C14.8519 19.4335 15.1261 17.5833 15.2198 16.4864L14.9972 16.4692C14.8233 18.5032 14.3939 19.2586 14.0494 19.2872Z" fill="#EE6723"/>
<path d="M17.3403 15.5324C17.9508 16.8568 18.1214 17.776 17.796 17.9921C17.4865 18.1977 16.6856 17.7767 15.6536 16.8657C14.5535 15.8948 13.2905 14.4691 12.0978 12.8512C10.9048 11.2335 9.92615 9.61912 9.34163 8.30522C8.79329 7.07268 8.65043 6.21368 8.96016 6.00801C9.23956 5.82229 10.0618 6.12808 11.5344 7.53182C11.5424 7.43881 11.5508 7.34731 11.5601 7.25733C10.7246 6.47909 9.42799 5.43847 8.83223 5.83424C8.30144 6.18737 8.70446 7.41764 9.13627 8.38794C9.72679 9.715 10.7136 11.3433 11.9152 12.973C13.1167 14.6025 14.3906 16.04 15.5018 17.021C16.1751 17.6153 17.0319 18.2532 17.608 18.2531C17.7268 18.2531 17.8338 18.2259 17.9247 18.1654C18.4773 17.7979 18.0238 16.466 17.5437 15.4251C17.4764 15.461 17.4085 15.497 17.3403 15.5324Z" fill="#EE6723"/>
</svg>
